<?xml version="1.0" encoding="UTF-8" standalone="no"?>
<!-- Uploaded to: SVG Repo, www.svgrepo.com, Generator: SVG Repo Mixer Tools -->

<svg
   width="800px"
   height="800px"
   viewBox="0 0 72 72"
   id="emoji"
   version="1.1"
   sodipodi:docname="apple.svg"
   inkscape:version="1.4 (e7c3feb100, 2024-10-09)"
   xmlns:inkscape="http://www.inkscape.org/namespaces/inkscape"
   xmlns:sodipodi="http://sodipodi.sourceforge.net/DTD/sodipodi-0.dtd"
   xmlns="http://www.w3.org/2000/svg"
   xmlns:svg="http://www.w3.org/2000/svg">
  <defs
     id="defs8" />
  <sodipodi:namedview
     id="namedview8"
     pagecolor="#505050"
     bordercolor="#eeeeee"
     borderopacity="1"
     inkscape:showpageshadow="0"
     inkscape:pageopacity="0"
     inkscape:pagecheckerboard="0"
     inkscape:deskcolor="#505050"
     inkscape:zoom="0.51375"
     inkscape:cx="150.85158"
     inkscape:cy="620.92457"
     inkscape:window-width="1920"
     inkscape:window-height="1002"
     inkscape:window-x="0"
     inkscape:window-y="0"
     inkscape:window-maximized="1"
     inkscape:current-layer="emoji" />
  <g
     id="color"
     transform="matrix(1.3818921,0,0,1.3931956,-13.415414,-14.098191)">
    <path
       fill="#ea5a47"
       d="m 11.6115,35.8384 c 0,6.83 4.4417,16.27 9.8122,21.4266 2.3817,2.29 4.947,3.735 7.3891,3.735 a 15.5438,15.5438 0 0 0 4.4076,-0.6478 9.5833,9.5833 0 0 1 5.5593,0 A 15.542,15.542 0 0 0 43.1872,61 c 2.5584,0 5.2539,-1.5874 7.7316,-4.0706 5.2156,-5.2224 9.47,-14.4073 9.47,-21.0911 0,-9.8613 -5.8991,-15.8193 -11.4461,-17.2574 a 17.099,17.099 0 0 0 -8.23,0.4027 18.6582,18.6582 0 0 1 -7.8589,0.3369 q -0.789,-0.1354 -1.5655,-0.3369 a 17.0983,17.0983 0 0 0 -8.23,-0.4027 c -5.5478,1.4382 -11.4468,7.3962 -11.4468,17.2575 z"
       id="path1"
       style="fill:#e23229;fill-opacity:1" />
    <path
       fill="#d22f27"
       d="M 21.4239,57.2644 A 37.7243,37.7243 0 0 0 36.9157,57.18 15.4515,15.4515 0 0 0 48.5822,44.02 c 1.94,-15.9775 -8.5,-20.6292 -8.5,-20.6292 a 11.6769,11.6769 0 0 1 -6.5,0.6478 c 2.1956,-2.1941 -0.7286,-4.7184 -0.7286,-4.7184 a 18.6583,18.6583 0 0 0 7.8589,-0.3369 17.0991,17.0991 0 0 1 8.23,-0.4027 c 5.5472,1.4382 11.4462,7.3962 11.4462,17.2575 C 60.3887,45.6994 51.131,61 43.1872,61 a 15.5438,15.5438 0 0 1 -4.4076,-0.6478 9.5833,9.5833 0 0 0 -5.5593,0 A 15.5433,15.5433 0 0 1 28.8127,61 c -2.442,0 -5.0073,-1.445 -7.3892,-3.735 z"
       id="path2"
       style="fill:#e23229;fill-opacity:1" />
    <path
       fill="#d22f27"
       d="m 29.993,22.6873 c 0,1.1218 1.7614,2.0559 4.0993,2.2681 0.3259,0.03 0.6629,0.0452 1.008,0.0452 0.36,0 0.7108,-0.0164 1.0492,-0.0479 2.3161,-0.2205 4.0568,-1.1505 4.0568,-2.2654 z"
       id="path3"
       style="fill:#e23229;fill-opacity:1" />
    <path
       fill="#b1cc33"
       d="m 33.1484,19.1786 c -2.7478,3.03 -10.9362,2.9086 -13.48,-6.7627 a 7.6188,7.6188 0 0 0 4.4647,-0.7172 c 3.8825,-2.003 10.1429,0.3772 11.6335,6.1578 a 4.2966,4.2966 0 0 0 -2.6183,1.3221"
       id="path4" />
  </g>
  <g
     id="line"
     transform="matrix(1.3818921,0,0,1.3931956,-13.415414,-14.098191)">
    <path
       fill="none"
       stroke="#000000"
       stroke-miterlimit="10"
       stroke-width="1.798"
       d="m 23.0578,18.5809 c -5.5473,1.4382 -11.4463,7.3962 -11.4463,17.2575 0,6.83 4.4417,16.27 9.8122,21.4266 2.3817,2.29 4.947,3.735 7.3891,3.735 a 15.5438,15.5438 0 0 0 4.4076,-0.6478 9.5833,9.5833 0 0 1 5.5593,0 A 15.542,15.542 0 0 0 43.1872,61 c 2.5584,0 5.2539,-1.5874 7.7316,-4.0706 5.2156,-5.2224 9.47,-14.4073 9.47,-21.0911 0,-9.8613 -5.8991,-15.8193 -11.4461,-17.2574 a 17.099,17.099 0 0 0 -8.23,0.4027 18.6582,18.6582 0 0 1 -7.8589,0.3369 q -0.0812,-0.0139 -0.1622,-0.0286"
       id="path5" />
    <path
       fill="none"
       stroke="#000000"
       stroke-miterlimit="10"
       stroke-width="1.798"
       d="m 23.0578,18.5809 c -5.5473,1.4382 -11.4463,7.3962 -11.4463,17.2575 0,6.83 4.4417,16.27 9.8122,21.4266 2.3817,2.29 4.947,3.735 7.3891,3.735 a 15.5438,15.5438 0 0 0 4.4076,-0.6478 9.5833,9.5833 0 0 1 5.5593,0 A 15.542,15.542 0 0 0 43.1872,61 c 2.5584,0 5.2539,-1.5874 7.7316,-4.0706 5.2156,-5.2224 9.47,-14.4073 9.47,-21.0911 0,-9.8613 -5.8991,-15.8193 -11.4461,-17.2574 a 17.099,17.099 0 0 0 -8.23,0.4027 18.6582,18.6582 0 0 1 -7.8589,0.3369"
       id="path6" />
    <path
       d="m 34.95,18.9056 a 31.2788,31.2788 0 0 0 -0.6807,3.7816 c -0.0863,0.7328 -0.1479,1.49 -0.1767,2.2681 0.3259,0.03 0.6629,0.0452 1.008,0.0452 0.36,0 0.7108,-0.0164 1.0492,-0.0479 0.03,-0.7779 0.0972,-1.534 0.189,-2.2654 a 29.9339,29.9339 0 0 1 2.7475,-9.2793 1.0275,1.0275 0 0 0 -1.8147,-0.9641 27.1067,27.1067 0 0 0 -1.5765,3.8583"
       id="path7" />
    <path
       fill="none"
       stroke="#000000"
       stroke-miterlimit="10"
       stroke-width="1.5536"
       d="m 19,12.4159 a 8.2358,8.2358 0 0 0 4.65,-0.7172 c 4.0437,-2.003 10.5641,0.3772 12.1166,6.1578 A 4.5612,4.5612 0 0 0 33.04,19.1786 C 30.1778,22.2089 21.6493,22.0872 19,12.4159 Z"
       id="path8" />
  </g>
</svg>
