<?xml version="1.0" encoding="UTF-8" standalone="no"?>
<!-- Uploaded to: SVG Repo, www.svgrepo.com, Generator: SVG Repo Mixer Tools -->

<svg
   width="800px"
   height="800px"
   viewBox="0 0 128 128"
   aria-hidden="true"
   role="img"
   class="iconify iconify--noto"
   preserveAspectRatio="xMidYMid meet"
   version="1.1"
   id="svg14"
   sodipodi:docname="mango.svg"
   inkscape:version="1.3 (0e150ed6c4, 2023-07-21)"
   xmlns:inkscape="http://www.inkscape.org/namespaces/inkscape"
   xmlns:sodipodi="http://sodipodi.sourceforge.net/DTD/sodipodi-0.dtd"
   xmlns="http://www.w3.org/2000/svg"
   xmlns:svg="http://www.w3.org/2000/svg"
   xmlns:rdf="http://www.w3.org/1999/02/22-rdf-syntax-ns#"
   xmlns:cc="http://creativecommons.org/ns#"
   xmlns:dc="http://purl.org/dc/elements/1.1/">
  <title
     id="title14">Womp womp MANGO MANGO</title>
  <defs
     id="defs14" />
  <sodipodi:namedview
     id="namedview14"
     pagecolor="#ffffff"
     bordercolor="#000000"
     borderopacity="0.25"
     inkscape:showpageshadow="2"
     inkscape:pageopacity="0.0"
     inkscape:pagecheckerboard="0"
     inkscape:deskcolor="#d1d1d1"
     inkscape:zoom="0.44989669"
     inkscape:cx="231.16418"
     inkscape:cy="387.86682"
     inkscape:window-width="1366"
     inkscape:window-height="705"
     inkscape:window-x="-8"
     inkscape:window-y="-8"
     inkscape:window-maximized="1"
     inkscape:current-layer="svg14" />
  <radialGradient
     id="IconifyId17ecdb2904d178eab13511"
     cx="75.424"
     cy="-61.613"
     r="183.963"
     gradientUnits="userSpaceOnUse">
    <stop
       offset=".532"
       stop-color="#f33a1f"
       id="stop1" />
    <stop
       offset=".615"
       stop-color="#f86922"
       id="stop2" />
    <stop
       offset=".696"
       stop-color="#fd9124"
       id="stop3" />
    <stop
       offset=".739"
       stop-color="#ffa025"
       id="stop4" />
    <stop
       offset=".793"
       stop-color="#fca025"
       id="stop5" />
    <stop
       offset=".839"
       stop-color="#f1a124"
       id="stop6" />
    <stop
       offset=".883"
       stop-color="#dfa222"
       id="stop7" />
    <stop
       offset=".925"
       stop-color="#c7a41f"
       id="stop8" />
    <stop
       offset=".962"
       stop-color="#aaa61c"
       id="stop9" />
  </radialGradient>
  <path
     d="M4.03 89.43c-1.2 6.01 5.66 29.12 41.45 33.74c18.39 2.37 36.45-4.16 50.75-15.11S119.3 83 122.31 70.11c4.63-19.85-.69-49.82-40.06-51.59c-40.26-1.81-53.79 40.28-62.23 52.65C9.86 86.08 5.12 84 4.03 89.43z"
     fill="url(#IconifyId17ecdb2904d178eab13511)"
     id="path9" />
  <path
     d="M41.89 36.33s13.57 6.9 34.61 5.44c17.03-1.18 23.73-9.54 23.73-9.54s7.49 2.06 12.46.74c1.99-.53 2.42-1.61-.01-4.13c-3.67-3.82-16.27-10.89-34.85-9.7c-23.25 1.51-35.94 17.19-35.94 17.19z"
     fill="#dc0d27"
     id="path10" />
  <path
     d="M102.36 24.98c-.68 2.97 2.05 5.05 3.94 6.54s6.15 2.05 7.57 1.02c1.42-1.02-.16-4.02.87-5.83c1.02-1.81 2.84-4.02.63-5.52c-1.85-1.26-4.34-1.73-6.62-1.26s-2.29 2.21-3.23 2.68c-.96.48-2.93 1.35-3.16 2.37z"
     fill="#6d4c41"
     id="path12" />
  <path
     d="M100.14 25.88c-2.52 1.1-9.94 6.95-27.26 8.28c-19.1 1.47-41.53-.8-45.27-1.33c-3.74-.53-10.12-.78-10.03-2.38c.13-2.4 2.61-1.63 7.61-3.07c6.01-1.74 12.15-4.14 16.83-6.94c7.18-4.31 21.8-15.09 36.19-15.36c15.76-.29 20.83 4.67 24.7 8.81s3.93 8.48 2.86 10.22c-1.06 1.74-2.56.44-5.63 1.77z"
     fill="#518e30"
     id="path13" />
  <metadata
     id="metadata14">
    <rdf:RDF>
      <cc:Work
         rdf:about="">
        <dc:title>Womp womp MANGO MANGO</dc:title>
        <dc:date>01.01.01</dc:date>
        <dc:creator>
          <cc:Agent>
            <dc:title>Mango llover</dc:title>
          </cc:Agent>
        </dc:creator>
      </cc:Work>
    </rdf:RDF>
  </metadata>
</svg>
